<svg width="16" height="16" viewBox="0 0 16 16" fill="none" xmlns="http://www.w3.org/2000/svg">
<path fill-rule="evenodd" clip-rule="evenodd" d="M15.6967 1.76618C15.7928 1.67023 15.869 1.55629 15.9211 1.43088C15.9731 1.30546 15.9999 1.17103 16 1.03524C16.0001 0.899459 15.9734 0.764989 15.9215 0.63951C15.8697 0.514031 15.7936 0.4 15.6976 0.303928C15.6017 0.207856 15.4877 0.131624 15.3623 0.0795851C15.2369 0.0275461 15.1024 0.000719002 14.9667 0.000635546C14.8309 0.00055209 14.6964 0.0272139 14.5709 0.0790987C14.4455 0.130984 14.3314 0.207075 14.2354 0.303029L7.99987 6.53851L1.76618 0.303029C1.57216 0.109003 1.309 -2.0444e-09 1.03461 0C0.760212 2.0444e-09 0.497055 0.109003 0.303029 0.303029C0.109003 0.497055 2.0444e-09 0.760212 0 1.03461C-2.0444e-09 1.309 0.109003 1.57216 0.303029 1.76618L6.53851 7.99987L0.303029 14.2336C0.206957 14.3296 0.130748 14.4437 0.0787546 14.5692C0.0267607 14.6947 0 14.8293 0 14.9651C0 15.101 0.0267607 15.2355 0.0787546 15.3611C0.130748 15.4866 0.206957 15.6006 0.303029 15.6967C0.497055 15.8907 0.760212 15.9997 1.03461 15.9997C1.17047 15.9997 1.30501 15.973 1.43053 15.921C1.55606 15.869 1.67011 15.7928 1.76618 15.6967L7.99987 9.46123L14.2354 15.6967C14.4294 15.8905 14.6924 15.9993 14.9667 15.9991C15.2409 15.9989 15.5038 15.8898 15.6976 15.6958C15.8914 15.5018 16.0002 15.2387 16 14.9645C15.9998 14.6903 15.8907 14.4273 15.6967 14.2336L9.46123 7.99987L15.6967 1.76618Z" fill="black"/>
</svg>
