<svg width="12" height="22" viewBox="0 0 12 22" fill="none" xmlns="http://www.w3.org/2000/svg">
<path d="M8.87081 10.9924L0.430625 2.55224C0.143544 2.26516 0.00459647 1.93023 0.0137831 1.54746C0.0229697 1.16468 0.171486 0.829754 0.459333 0.542673C0.74718 0.255591 1.08211 0.112051 1.46412 0.112051C1.84613 0.112051 2.18105 0.255591 2.4689 0.542673L11.311 9.35608C11.5407 9.58574 11.7129 9.84411 11.8278 10.1312C11.9426 10.4183 12 10.7054 12 10.9924C12 11.2795 11.9426 11.5666 11.8278 11.8537C11.7129 12.1408 11.5407 12.3991 11.311 12.6288L2.4689 21.4709C2.18182 21.758 1.84192 21.8969 1.44919 21.8878C1.05646 21.8786 0.716941 21.7301 0.430625 21.4422C0.144309 21.1544 0.000768624 20.8194 3.07409e-06 20.4374C-0.000762476 20.0554 0.142778 19.7205 0.430625 19.4326L8.87081 10.9924Z" fill="black"/>
</svg>
