<svg width="63" height="63" viewBox="0 0 63 63" fill="none" xmlns="http://www.w3.org/2000/svg">
<path d="M25.228 29.4282L29.442 25.1624L26.698 22.3675L25.914 23.152C25.5547 23.5116 25.1058 23.6999 24.5675 23.7169C24.0291 23.7339 23.5633 23.5456 23.17 23.152C22.7767 22.7585 22.5807 22.293 22.582 21.7556C22.5833 21.2182 22.7793 20.752 23.17 20.3571L23.905 19.6216L21.7 17.4152L17.437 21.681L25.228 29.4282ZM41.3 45.5601L45.563 41.2942L43.358 39.0877L42.574 39.8232C42.182 40.2155 41.7247 40.4116 41.202 40.4116C40.6793 40.4116 40.222 40.2155 39.83 39.8232C39.438 39.431 39.242 38.9733 39.242 38.4503C39.242 37.9273 39.438 37.4697 39.83 37.0774L40.565 36.2929L37.772 33.547L33.558 37.7639L41.3 45.5601ZM39.781 20.5533L42.525 23.2991L45.269 20.5533L42.476 17.7584L39.781 20.5533ZM15.82 49.1395C15.2647 49.1395 14.7995 48.9512 14.4245 48.5746C14.0495 48.1981 13.8613 47.7326 13.86 47.1782V41.6375C13.86 41.3759 13.909 41.1229 14.007 40.8784C14.105 40.6339 14.252 40.4129 14.448 40.2155L22.435 32.2231L13.958 23.7404C13.4027 23.1847 13.125 22.4982 13.125 21.681C13.125 20.8638 13.4027 20.1774 13.958 19.6216L19.642 13.9338C20.1973 13.3781 20.8833 13.1088 21.7 13.1258C22.5167 13.1428 23.2027 13.4285 23.758 13.9829L32.284 22.4656L39.683 15.0125C40.075 14.6203 40.516 14.3261 41.006 14.13C41.496 13.9338 42.0023 13.8358 42.525 13.8358C43.0477 13.8358 43.554 13.9338 44.044 14.13C44.534 14.3261 44.975 14.6203 45.367 15.0125L47.964 17.6603C48.356 18.0526 48.65 18.4939 48.846 18.9842C49.042 19.4745 49.14 19.9812 49.14 20.5042C49.14 21.0273 49.042 21.5261 48.846 22.0007C48.65 22.4754 48.356 22.9082 47.964 23.2991L40.565 30.7521L49.042 39.2348C49.5973 39.7905 49.875 40.477 49.875 41.2942C49.875 42.1114 49.5973 42.7979 49.042 43.3536L43.358 49.0414C42.8027 49.5971 42.1167 49.875 41.3 49.875C40.4833 49.875 39.7973 49.5971 39.242 49.0414L30.765 40.5587L22.778 48.5511C22.582 48.7472 22.3618 48.8943 22.1175 48.9924C21.8731 49.0905 21.6196 49.1395 21.357 49.1395H15.82Z" fill="white"/>
</svg>
