<svg width="49" height="49" viewBox="0 0 49 49" fill="none" xmlns="http://www.w3.org/2000/svg">
<path d="M10.7188 42.2188C9.63594 42.2188 8.70931 41.8336 7.93888 41.0631C7.16844 40.2927 6.78256 39.3654 6.78125 38.2813V13.6719C6.78125 13.2125 6.85541 12.7774 7.00372 12.3666C7.15203 11.9558 7.37319 11.5706 7.66719 11.211L10.4234 7.86408C10.7188 7.50314 11.0554 7.23211 11.4334 7.05098C11.8114 6.86986 12.2294 6.77995 12.6875 6.78126H36.3125C36.7719 6.78126 37.1906 6.87183 37.5686 7.05295C37.9466 7.23408 38.2826 7.50445 38.5766 7.86408L41.3328 11.211C41.6282 11.5719 41.85 11.9578 41.9983 12.3686C42.1466 12.7794 42.2201 13.2138 42.2188 13.6719V38.2813C42.2188 39.3641 41.8336 40.2914 41.0631 41.0631C40.2927 41.8349 39.3654 42.2201 38.2813 42.2188H10.7188ZM11.5063 12.6875H37.4938L35.8203 10.7188H13.1797L11.5063 12.6875ZM10.7188 38.2813H38.2813V16.625H10.7188V38.2813ZM30.8 27.4532L28.093 30.1602C27.6992 30.5539 27.5024 31.0297 27.5024 31.5875C27.5024 32.1453 27.6992 32.6211 28.093 33.0149C28.4867 33.4086 28.9625 33.6055 29.5203 33.6055C30.0781 33.6055 30.5539 33.4086 30.9477 33.0149L35.1313 28.8313C35.525 28.4375 35.7219 27.9782 35.7219 27.4532C35.7219 26.9282 35.525 26.4688 35.1313 26.075L30.9477 21.8914C30.5539 21.4977 30.0781 21.3008 29.5203 21.3008C28.9625 21.3008 28.4867 21.4977 28.093 21.8914C27.6992 22.2852 27.5024 22.761 27.5024 23.3188C27.5024 23.8766 27.6992 24.3524 28.093 24.7461L30.8 27.4532ZM18.2984 27.4532L21.0055 24.7461C21.3992 24.3524 21.5961 23.8766 21.5961 23.3188C21.5961 22.761 21.3992 22.2852 21.0055 21.8914C20.6117 21.4977 20.1359 21.3008 19.5781 21.3008C19.0203 21.3008 18.5445 21.4977 18.1508 21.8914L13.9672 26.075C13.5734 26.4688 13.3766 26.9282 13.3766 27.4532C13.3766 27.9782 13.5734 28.4375 13.9672 28.8313L18.1508 33.0149C18.5445 33.4086 19.0203 33.6055 19.5781 33.6055C20.1359 33.6055 20.6117 33.4086 21.0055 33.0149C21.3992 32.6211 21.5961 32.1453 21.5961 31.5875C21.5961 31.0297 21.3992 30.5539 21.0055 30.1602L18.2984 27.4532Z" fill="white"/>
</svg>
