<svg width="43" height="43" viewBox="0 0 43 43" fill="none" xmlns="http://www.w3.org/2000/svg">
<path d="M31.2309 29.375L13.625 11.7691V3.125H3.125V13.625H11.7691L29.375 31.2309V39.875H39.875V29.375H31.2309ZM11 11H5.75V5.75H11V11ZM37.25 37.25H32V32H37.25V37.25Z" fill="white"/>
<path d="M39.8749 8.37494C39.8765 7.09877 39.4123 5.8659 38.5694 4.90772C37.7265 3.94954 36.5628 3.33194 35.2969 3.17084C34.0309 3.00973 32.7497 3.3162 31.6936 4.03272C30.6376 4.74925 29.8794 5.82655 29.5613 7.06244H17.5624V9.68744H29.5613C29.7971 10.5895 30.269 11.4124 30.9282 12.0716C31.5875 12.7309 32.4104 13.2027 33.3124 13.4386V25.4374H35.9374V13.4386C37.0616 13.1493 38.0579 12.4952 38.7705 11.5789C39.483 10.6625 39.8715 9.5357 39.8749 8.37494ZM34.6249 10.9999C34.1057 10.9999 33.5982 10.846 33.1665 10.5575C32.7349 10.2691 32.3984 9.85914 32.1997 9.37949C32.0011 8.89983 31.9491 8.37203 32.0504 7.86283C32.1516 7.35363 32.4016 6.8859 32.7688 6.51879C33.1359 6.15167 33.6036 5.90167 34.1128 5.80038C34.622 5.69909 35.1498 5.75108 35.6295 5.94976C36.1091 6.14844 36.5191 6.48489 36.8075 6.91657C37.096 7.34825 37.2499 7.85577 37.2499 8.37494C37.2499 9.07114 36.9734 9.73881 36.4811 10.2311C35.9888 10.7234 35.3211 10.9999 34.6249 10.9999ZM25.4374 33.3124H13.4385C13.2027 32.4104 12.7309 31.5875 12.0716 30.9282C11.4124 30.269 10.5894 29.7972 9.68742 29.5613V17.5624H7.06241V29.5613C6.16677 29.7908 5.34781 30.2533 4.68868 30.9017C4.02956 31.55 3.55375 32.3613 3.30956 33.2531C3.06538 34.1448 3.06152 35.0853 3.29838 35.9791C3.53523 36.8728 4.00437 37.6879 4.65815 38.3417C5.31193 38.9955 6.12707 39.4646 7.0208 39.7015C7.91454 39.9383 8.85503 39.9345 9.74679 39.6903C10.6385 39.4461 11.4498 38.9703 12.0982 38.3112C12.7466 37.6521 13.209 36.8331 13.4385 35.9374H25.4374V33.3124ZM8.37492 37.2499C7.85574 37.2499 7.34822 37.096 6.91654 36.8075C6.48486 36.5191 6.14841 36.1091 5.94973 35.6295C5.75105 35.1498 5.69907 34.622 5.80035 34.1128C5.90164 33.6036 6.15165 33.1359 6.51876 32.7688C6.88587 32.4017 7.3536 32.1517 7.8628 32.0504C8.372 31.9491 8.8998 32.0011 9.37946 32.1998C9.85912 32.3984 10.2691 32.7349 10.5575 33.1666C10.846 33.5982 10.9999 34.1058 10.9999 34.6249C10.9999 35.3211 10.7234 35.9888 10.2311 36.4811C9.73879 36.9734 9.07111 37.2499 8.37492 37.2499Z" fill="white"/>
</svg>
