<svg width="24" height="24" viewBox="0 0 24 24" fill="none" xmlns="http://www.w3.org/2000/svg">
<path d="M15.1503 8.40042C14.3838 8.39779 13.6244 8.54632 12.9154 8.8375C12.2064 9.12868 11.5618 9.55681 11.0185 10.0974C10.4751 10.6379 10.0437 11.2803 9.74885 11.9878C9.45403 12.6953 9.3016 13.454 9.30029 14.2204V20.1004C9.30029 20.3391 9.39511 20.568 9.5639 20.7368C9.73268 20.9056 9.9616 21.0004 10.2003 21.0004H12.3003C12.539 21.0004 12.7679 20.9056 12.9367 20.7368C13.1055 20.568 13.2003 20.3391 13.2003 20.1004V14.2204C13.2001 13.9478 13.2574 13.6782 13.3683 13.4293C13.4793 13.1803 13.6415 12.9575 13.8444 12.7754C14.0472 12.5933 14.2862 12.456 14.5456 12.3724C14.8051 12.2889 15.0793 12.2609 15.3503 12.2904C15.8363 12.3516 16.2829 12.5891 16.6055 12.9577C16.9281 13.3264 17.1041 13.8006 17.1003 14.2904V20.1004C17.1003 20.3391 17.1951 20.568 17.3639 20.7368C17.5327 20.9056 17.7616 21.0004 18.0003 21.0004H20.1003C20.339 21.0004 20.5679 20.9056 20.7367 20.7368C20.9055 20.568 21.0003 20.3391 21.0003 20.1004V14.2204C20.999 13.454 20.8466 12.6953 20.5517 11.9878C20.2569 11.2803 19.8255 10.6379 19.2821 10.0974C18.7388 9.55681 18.0942 9.12868 17.3852 8.8375C16.6762 8.54632 15.9167 8.39779 15.1503 8.40042Z" fill="#181818"/>
<path d="M6.6 9.30029H3.9C3.40294 9.30029 3 9.70324 3 10.2003V20.1003C3 20.5973 3.40294 21.0003 3.9 21.0003H6.6C7.09706 21.0003 7.5 20.5973 7.5 20.1003V10.2003C7.5 9.70324 7.09706 9.30029 6.6 9.30029Z" fill="#181818"/>
<path d="M5.25 7.5C6.49264 7.5 7.5 6.49264 7.5 5.25C7.5 4.00736 6.49264 3 5.25 3C4.00736 3 3 4.00736 3 5.25C3 6.49264 4.00736 7.5 5.25 7.5Z" fill="#181818"/>
</svg>
