<svg width="24" height="24" viewBox="0 0 24 24" fill="none" xmlns="http://www.w3.org/2000/svg">
<path d="M8.07931 20.0003C9.558 20.0498 11.0316 19.8023 12.413 19.2726C13.7945 18.7429 15.0557 17.9416 16.1222 16.9161C17.1887 15.8906 18.0388 14.6618 18.6223 13.3022C19.2058 11.9426 19.5108 10.4798 19.5193 9.00029C20.197 8.1617 20.7001 7.19612 20.9993 6.16029C21.0216 6.07845 21.0198 5.9919 20.9941 5.91106C20.9684 5.83022 20.9199 5.75854 20.8543 5.70465C20.7888 5.65076 20.7091 5.61696 20.6249 5.60732C20.5406 5.59767 20.4553 5.61259 20.3793 5.65029C20.0248 5.82094 19.6257 5.87607 19.2382 5.80789C18.8507 5.73972 18.4943 5.55169 18.2193 5.27029C17.8683 4.88587 17.4436 4.57582 16.9706 4.35852C16.4975 4.14121 15.9856 4.02108 15.4653 4.00522C14.9449 3.98937 14.4267 4.07812 13.9413 4.26623C13.4558 4.45433 13.0131 4.73795 12.6393 5.10029C12.1275 5.59595 11.7526 6.21558 11.5511 6.89896C11.3496 7.58235 11.3283 8.30624 11.4893 9.00029C8.13931 9.20029 5.83931 7.61029 3.99931 5.43029C3.94403 5.36769 3.87172 5.32254 3.79121 5.30036C3.7107 5.27817 3.62547 5.27991 3.54593 5.30537C3.4664 5.33082 3.39599 5.37888 3.34331 5.44368C3.29064 5.50849 3.25797 5.58723 3.24931 5.67029C2.89878 7.61471 3.15164 9.61984 3.97393 11.4164C4.79622 13.2129 6.14855 14.7148 7.84931 15.7203C6.70895 17.0281 5.10752 17.845 3.37931 18.0003C3.28672 18.0156 3.20125 18.0596 3.13486 18.1259C3.06847 18.1922 3.02448 18.2777 3.00905 18.3702C2.99362 18.4628 3.00753 18.5579 3.04881 18.6422C3.0901 18.7265 3.15671 18.7957 3.23931 18.8403C4.74283 19.5917 6.39854 19.9885 8.07931 20.0003Z" fill="#181818"/>
</svg>
