<svg width="32" height="32" viewBox="0 0 32 32" fill="none" xmlns="http://www.w3.org/2000/svg">
<path d="M20.2001 11.2002C19.1782 11.1967 18.1656 11.3948 17.2203 11.783C16.275 12.1713 15.4155 12.7421 14.691 13.4628C13.9666 14.1836 13.3913 15.0401 12.9982 15.9834C12.6051 16.9267 12.4019 17.9383 12.4001 18.9602V26.8002C12.4001 27.1185 12.5266 27.4237 12.7516 27.6488C12.9767 27.8738 13.2819 28.0002 13.6001 28.0002H16.4001C16.7184 28.0002 17.0236 27.8738 17.2487 27.6488C17.4737 27.4237 17.6001 27.1185 17.6001 26.8002V18.9602C17.5999 18.5968 17.6762 18.2373 17.8242 17.9054C17.9722 17.5734 18.1884 17.2763 18.4589 17.0335C18.7294 16.7907 19.048 16.6076 19.3939 16.4962C19.7399 16.3848 20.1055 16.3476 20.4668 16.3869C21.1148 16.4685 21.7103 16.7851 22.1404 17.2767C22.5705 17.7682 22.8053 18.4005 22.8001 19.0536V26.8002C22.8001 27.1185 22.9266 27.4237 23.1516 27.6488C23.3767 27.8738 23.6819 28.0002 24.0001 28.0002H26.8001C27.1184 28.0002 27.4236 27.8738 27.6487 27.6488C27.8737 27.4237 28.0001 27.1185 28.0001 26.8002V18.9602C27.9984 17.9383 27.7952 16.9267 27.4021 15.9834C27.009 15.0401 26.4337 14.1836 25.7093 13.4628C24.9848 12.7421 24.1253 12.1713 23.18 11.783C22.2347 11.3948 21.2221 11.1967 20.2001 11.2002Z" fill="white"/>
<path d="M8.8 12.3999H5.2C4.53726 12.3999 4 12.9372 4 13.5999V26.7999C4 27.4626 4.53726 27.9999 5.2 27.9999H8.8C9.46274 27.9999 10 27.4626 10 26.7999V13.5999C10 12.9372 9.46274 12.3999 8.8 12.3999Z" fill="white"/>
<path d="M7 10C8.65685 10 10 8.65685 10 7C10 5.34315 8.65685 4 7 4C5.34315 4 4 5.34315 4 7C4 8.65685 5.34315 10 7 10Z" fill="white"/>
</svg>
