<svg width="53" height="53" viewBox="0 0 53 53" fill="none" xmlns="http://www.w3.org/2000/svg">
<g clip-path="url(#clip0_31_4042)">
<path d="M26.5 4.625C38.5816 4.625 48.375 14.4184 48.375 26.5C48.375 38.5816 38.5816 48.375 26.5 48.375C14.4184 48.375 4.625 38.5816 4.625 26.5C4.625 14.4184 14.4184 4.625 26.5 4.625ZM20.4187 17.75H19.4562C18.4806 17.7501 17.5331 18.0764 16.7642 18.6769C15.9952 19.2773 15.4491 20.1176 15.2125 21.0641L12.3469 32.5331C12.2716 32.8136 12.253 33.1063 12.292 33.3941C12.3311 33.6819 12.427 33.959 12.5743 34.2093C12.7216 34.4596 12.9172 34.6781 13.1498 34.852C13.3825 35.0259 13.6474 35.1517 13.9291 35.2221C14.2109 35.2926 14.5038 35.3062 14.7909 35.2622C15.078 35.2183 15.3534 35.1176 15.6011 34.966C15.8489 34.8145 16.064 34.6151 16.2339 34.3795C16.4037 34.144 16.525 33.877 16.5906 33.5941L17.2687 30.875H22.6062L23.2844 33.5919C23.35 33.8748 23.4712 34.1418 23.6411 34.3774C23.811 34.6129 24.0261 34.8123 24.2738 34.9638C24.5216 35.1154 24.797 35.2161 25.0841 35.26C25.3712 35.304 25.6641 35.2904 25.9459 35.22C26.2276 35.1495 26.4925 35.0237 26.7251 34.8498C26.9578 34.6759 27.1534 34.4574 27.3007 34.2071C27.448 33.9568 27.5439 33.6797 27.583 33.3919C27.622 33.1041 27.6034 32.8114 27.5281 32.5309L24.6625 21.0641C24.4259 20.1176 23.8798 19.2773 23.1108 18.6769C22.3419 18.0764 21.3944 17.7501 20.4187 17.75ZM35.25 17.75H30.875C30.2948 17.75 29.7384 17.9805 29.3282 18.3907C28.918 18.8009 28.6875 19.3573 28.6875 19.9375V33.0625C28.6875 33.6427 28.918 34.1991 29.3282 34.6093C29.7384 35.0195 30.2948 35.25 30.875 35.25H35.25C36.9905 35.25 38.6597 34.5586 39.8904 33.3279C41.1211 32.0972 41.8125 30.428 41.8125 28.6875V24.3125C41.8125 22.572 41.1211 20.9028 39.8904 19.6721C38.6597 18.4414 36.9905 17.75 35.25 17.75ZM35.25 22.125C35.8302 22.125 36.3866 22.3555 36.7968 22.7657C37.207 23.1759 37.4375 23.7323 37.4375 24.3125V28.6875C37.4375 29.2677 37.207 29.8241 36.7968 30.2343C36.3866 30.6445 35.8302 30.875 35.25 30.875H33.0625V22.125H35.25ZM20.4187 22.125L21.5125 26.5H18.3625L19.4562 22.125H20.4187Z" fill="white"/>
</g>
<defs>
<clipPath id="clip0_31_4042">
<rect width="52.5" height="52.5" fill="white" transform="translate(0.25 0.25)"/>
</clipPath>
</defs>
</svg>
