<svg width="32" height="32" viewBox="0 0 32 32" fill="none" xmlns="http://www.w3.org/2000/svg">
<path d="M10.7734 26.6666C12.745 26.7325 14.7098 26.4026 16.5517 25.6963C18.3936 24.99 20.0753 23.9216 21.4973 22.5543C22.9192 21.187 24.0527 19.5486 24.8307 17.7357C25.6087 15.9229 26.0154 13.9726 26.0267 11.9999C26.9303 10.8818 27.6012 9.59434 28.0001 8.21323C28.0298 8.10411 28.0274 7.98871 27.9931 7.88093C27.9588 7.77314 27.8941 7.67757 27.8068 7.60572C27.7194 7.53386 27.6132 7.48879 27.5008 7.47593C27.3884 7.46307 27.2747 7.48297 27.1734 7.53323C26.7007 7.76077 26.1685 7.83427 25.6519 7.74337C25.1352 7.65247 24.66 7.40176 24.2934 7.02656C23.8253 6.514 23.2591 6.1006 22.6284 5.81087C21.9976 5.52113 21.3151 5.36095 20.6213 5.33981C19.9275 5.31867 19.2365 5.43701 18.5893 5.68781C17.9421 5.93861 17.3518 6.31678 16.8534 6.7999C16.171 7.46077 15.6712 8.28695 15.4025 9.19813C15.1338 10.1093 15.1054 11.0745 15.3201 11.9999C10.8534 12.2666 7.78672 10.1466 5.33339 7.2399C5.25969 7.15643 5.16327 7.09623 5.05593 7.06666C4.94858 7.03708 4.83494 7.0394 4.72889 7.07333C4.62284 7.10727 4.52896 7.17135 4.45873 7.25776C4.3885 7.34416 4.34494 7.44915 4.33339 7.5599C3.86601 10.1525 4.20316 12.826 5.29955 15.2213C6.39593 17.6167 8.19905 19.6192 10.4667 20.9599C8.94624 22.7037 6.811 23.7928 4.50672 23.9999C4.38327 24.0204 4.26931 24.0789 4.18079 24.1674C4.09227 24.2558 4.03362 24.3697 4.01305 24.4932C3.99247 24.6166 4.01101 24.7434 4.06606 24.8558C4.12111 24.9681 4.20992 25.0605 4.32006 25.1199C6.32475 26.1217 8.53236 26.6508 10.7734 26.6666Z" fill="white"/>
</svg>
